<svg width="548" height="118" viewBox="0 0 548 118" fill="none" xmlns="http://www.w3.org/2000/svg">
<g clip-path="url(#clip0)">
<path d="M275.646 2.10413H285.748C286.088 2.72967 286.315 3.41208 286.713 4.03762L321.786 62.5542C323.772 65.9094 325.815 69.2646 327.972 72.7904C330.469 69.6058 331.604 66.08 333.987 63.3504L340.003 72.7335C340.457 72.108 340.684 71.7099 340.911 71.3687L363.612 32.9832L381.659 2.10413H391.591C391.591 25.2492 391.591 48.3374 391.931 71.4256C392.329 86.2111 391.931 101.054 391.931 115.839H379.049V48.6217H378.481L367.131 67.2174V48.6786C366.279 48.6786 366.166 48.6786 365.996 49.2473C360.32 58.8768 354.645 68.4685 348.97 78.0222C343.862 86.4955 339.095 95.0824 333.647 103.442C333.647 103.442 333.193 103.158 333.079 102.93C325.304 90.135 317.586 77.3398 309.811 64.6015C306.917 59.7677 304.136 54.9909 301.014 50.1571H300.39V68.241L288.586 49.4747V115.839H275.646V2.10413Z" fill="#721260"/>
<path d="M118.044 2.10413H127.806C127.806 6.08485 127.806 10.0656 127.806 14.0463C127.806 48.1668 127.408 81.8892 128.203 115.839H115.377V48.5649H114.753L103.402 67.2174V48.6217C102.502 49.1841 101.76 49.9669 101.245 50.8964C93.3569 64.2034 85.3548 77.5104 77.523 90.7036C74.7977 94.838 72.3519 99.1506 70.202 103.613H69.4642C69.2195 102.942 68.9156 102.295 68.5562 101.679L44.7202 62.5542C42.1663 58.0617 39.726 53.8535 36.9451 49.5885H36.3776V67.6155L24.5164 48.9629V115.839H11.9741V2.10413H22.1328C22.7003 3.18461 23.2111 4.37882 23.8921 5.45931C33.1995 21.041 42.6204 36.6227 52.2682 52.2044L64.5835 72.6767C66.6952 69.4706 68.5912 66.1269 70.2587 62.668H70.5992C71.9087 65.3196 73.3873 67.884 75.0259 70.3451C76.4447 72.7904 76.5582 72.7904 77.9203 70.3451L89.2707 50.7827C98.843 34.5944 108.434 18.3682 118.044 2.10413Z" fill="#721260"/>
<path d="M478.025 0.341553H481.827C487.65 1.08836 493.365 2.51992 498.853 4.60661C506 7.30927 512.535 11.4189 518.071 16.6931C523.607 21.9672 528.034 28.2991 531.088 35.315C535.634 45.6529 537.112 57.0841 535.345 68.2413C534.294 75.6647 531.738 82.7939 527.834 89.1901C523.93 95.5862 518.76 101.114 512.644 105.433C503.502 112.128 492.75 116.269 481.487 117.432H477.287C474.279 116.863 471.215 116.465 468.32 115.726C459.749 113.872 451.715 110.08 444.83 104.639C437.945 99.199 432.391 92.254 428.594 84.3348C423.359 73.2703 421.731 60.8358 423.94 48.7926C425.376 39.2817 429.253 30.3079 435.193 22.7512C441.132 15.1944 448.93 9.31421 457.821 5.68709C464.247 2.89132 471.059 1.08895 478.025 0.341553V0.341553ZM479.671 95.2534C482.508 95.2534 485.346 95.2534 488.07 95.2534C492.952 95.1871 497.758 94.0296 502.137 91.8651C506.516 89.7007 510.358 86.5841 513.382 82.7425C519.26 75.1622 522.104 65.6572 521.359 56.0866C520.614 46.516 516.332 37.5682 509.352 30.9931C505.524 27.6114 500.987 25.135 496.075 23.7471C491.163 22.3592 486.003 22.0952 480.976 22.9748H479.387C475.315 22.2348 471.144 22.2348 467.072 22.9748C459.328 24.2203 452.272 28.1681 447.152 34.1208C443.287 38.6248 440.545 43.985 439.154 49.7592C437.763 55.5335 437.761 61.5565 439.15 67.3314C440.008 72.6625 442.159 77.7009 445.415 82.0042C448.67 86.3074 452.93 89.7439 457.821 92.0119C464.699 94.9795 472.23 96.0968 479.671 95.2534V95.2534Z" fill="#721260"/>
<path d="M151.585 2.10413H167.362L197.554 52.6024L203.57 43.1624C206.067 45.8921 207.259 49.4179 209.643 52.5456L239.835 2.10413H253.512C253.228 2.6728 253.058 3.29834 252.718 3.86702C238.794 27.1448 224.833 50.3846 210.834 73.5865C210.012 74.8769 209.579 76.3775 209.586 77.9085V115.839H195.454C195.454 103.101 195.454 90.3624 195.454 77.6241C195.481 76.1778 195.086 74.7551 194.319 73.5297C183.423 55.5216 172.564 37.4567 161.744 19.335C158.338 13.5914 154.536 8.07521 151.585 2.10413Z" fill="#721260"/>
<path d="M478.024 0.341259C471.041 1.1972 464.228 3.1148 457.821 6.02801C449.018 9.73081 441.319 15.6507 435.472 23.2132C429.626 30.7758 425.829 39.7242 424.45 49.1904C422.241 61.2336 423.869 73.668 429.104 84.7326C432.902 92.6518 438.455 99.5968 445.34 105.037C452.225 110.478 460.26 114.27 468.831 116.123C471.725 116.863 474.79 117.261 477.797 117.829C470.159 118.617 462.44 117.863 455.097 115.612C444.586 113.103 435.024 107.603 427.563 99.7732C420.101 91.9434 415.059 82.1185 413.043 71.4825C411.254 63.5443 411.146 55.3182 412.728 47.3358C414.309 39.3534 417.545 31.7923 422.225 25.1411C426.905 18.4899 432.925 12.8967 439.898 8.72279C446.87 4.54892 454.638 1.8873 462.701 0.909934C467.758 0.0101844 472.915 -0.181203 478.024 0.341259V0.341259Z" fill="#E63474"/>
<path d="M481.77 117.602C493.033 116.439 503.785 112.298 512.927 105.603C519.043 101.284 524.212 95.7568 528.117 89.3607C532.021 82.9645 534.577 75.8353 535.627 68.4119C537.47 57.2341 536.051 45.7608 531.541 35.3719C528.454 28.3288 523.984 21.9803 518.398 16.7046C512.811 11.4288 506.222 7.33383 499.022 4.66347C493.534 2.57677 487.819 1.14522 481.997 0.398412C490.349 -0.506379 498.797 0.445036 506.741 3.18492C517.092 5.98985 526.414 11.7336 533.583 19.7244C540.752 27.7152 545.463 37.6123 547.148 48.2239C548.682 55.7682 548.69 63.544 547.173 71.0917C545.657 78.6394 542.646 85.8059 538.318 92.1676C533.99 98.5293 528.433 103.957 521.977 108.13C515.52 112.304 508.293 115.138 500.725 116.465C494.52 117.943 488.106 118.327 481.77 117.602V117.602Z" fill="#8431E0"/>
<path d="M128.26 115.839C127.466 81.7186 128.26 47.9962 127.863 14.0463C127.863 10.0656 127.863 6.08485 127.863 2.10413H139.724V3.12774C139.724 22.5196 139.724 41.9114 139.724 61.36C139.724 78.7615 139.838 96.1819 140.065 113.621C140.065 115.555 139.441 116.067 137.624 115.953C134.56 115.782 131.438 115.896 128.26 115.839Z" fill="#832FDF"/>
<path d="M391.875 115.839C391.875 101.054 392.215 86.2111 391.875 71.4256C391.194 48.3374 391.591 25.2492 391.591 2.10413C394.826 2.10413 398.061 2.10413 401.295 2.10413C403.055 2.10413 403.566 2.55907 403.566 4.37882C403.566 10.748 403.566 17.174 403.566 23.6C403.566 53.4744 403.698 83.3488 403.963 113.223C403.963 115.384 403.566 116.294 401.182 116.123C398.798 115.953 394.939 115.896 391.875 115.839Z" fill="#8330DF"/>
<path d="M139.837 3.12774V2.10413H151.755C154.706 7.79087 158.508 13.4776 161.914 19.1644C172.696 37.324 183.555 55.3889 194.489 73.3591C195.256 74.5845 195.651 76.0072 195.624 77.4535C195.624 90.1918 195.624 102.93 195.624 115.668C192.56 115.668 189.495 115.668 186.431 115.668C183.366 115.668 183.536 115.27 183.536 112.939C183.536 101.167 183.536 89.4526 183.536 77.7379C183.57 76.027 183.096 74.3448 182.174 72.9041C168.478 50.1571 154.838 27.4102 141.256 4.66316C140.806 4.13059 140.332 3.61828 139.837 3.12774V3.12774Z" fill="#E53373"/>
<path d="M209.586 115.839V77.9083C209.579 76.3774 210.012 74.8768 210.834 73.5864C224.833 50.3845 238.794 27.1446 252.718 3.86689C253.058 3.29822 253.228 2.67268 253.512 2.104C257.114 1.72536 260.753 1.91727 264.295 2.67268L263.614 5.68665C257.939 14.8423 252.263 23.998 246.929 33.1536C238.87 46.4606 230.868 59.8813 222.866 72.9609C221.944 74.4015 221.47 76.0838 221.504 77.7946C221.504 89.5093 221.504 101.281 221.504 112.996C221.504 115.043 220.936 115.668 218.95 115.498C215.658 115.782 212.764 115.896 209.586 115.839Z" fill="#8330DF"/>
<path d="M11.9746 2.10429V115.839C8.56945 115.839 5.16431 115.839 1.70242 115.839C0.397121 115.839 -0.11365 115.441 0.0566072 114.133C0.0850111 113.679 0.0850111 113.223 0.0566072 112.768C0.0566072 76.8281 0.0566072 40.8121 0.0566072 4.72019C-0.000145075 2.6161 0.567378 1.76308 3.06448 1.99055C5.56158 2.21802 9.02347 2.10429 11.9746 2.10429Z" fill="#E63273"/>
<path d="M263.614 5.68714L264.295 2.44569C268.032 1.71204 271.854 1.52052 275.645 1.87702V115.612C272.297 115.612 268.949 115.612 265.657 115.612C264.068 115.612 263.557 115.1 263.728 113.622C263.728 112.996 263.728 112.314 263.728 111.688V9.32665C263.728 8.30304 263.671 7.10882 263.614 5.68714Z" fill="#E63373"/>
<path d="M118.044 2.10402C108.472 18.3681 98.843 34.727 89.1573 51.1806L77.8069 70.7431C76.4448 73.1315 76.3313 73.1315 74.9125 70.7431C73.2154 68.1198 71.6985 65.3839 70.3723 62.5541C81.7228 42.8211 93.6975 23.145 105.275 3.41197C105.516 2.95177 105.887 2.57215 106.34 2.31963C106.794 2.06711 107.311 1.95265 107.829 1.99029C111.234 2.10402 114.639 2.10402 118.044 2.10402Z" fill="#E63373"/>
<path d="M333.987 63.2368C331.604 65.9664 330.469 69.4922 327.972 72.6768C325.815 69.151 323.772 65.7958 321.786 62.4406L286.713 4.09463C286.316 3.46909 286.089 2.78668 285.748 2.16114C288.813 2.16114 291.934 2.16114 294.942 2.16114C295.729 2.07256 296.524 2.24042 297.209 2.63986C297.894 3.03931 298.432 3.6491 298.744 4.37897C310.095 23.2021 321.445 41.9684 332.796 60.7346C333.217 61.4015 333.672 62.0469 334.158 62.6681L333.987 63.2368Z" fill="#8330DF"/>
<path d="M333.988 63.2368V62.5544C341.252 50.4416 348.459 38.272 355.724 26.1023C360.094 18.6527 364.464 11.3737 368.89 3.86715C369.145 3.25098 369.593 2.73459 370.166 2.39602C370.739 2.05746 371.407 1.91512 372.068 1.99052C375.303 1.99052 378.538 1.99052 381.773 1.99052L363.612 32.8696L340.911 71.2551C340.911 71.5963 340.457 71.9944 340.003 72.6199L333.988 63.2368Z" fill="#E63373"/>
<path d="M70.0317 62.5543C68.3642 66.0132 66.4682 69.3569 64.3565 72.5629L51.9845 52.2612C42.6204 36.6796 33.1995 21.0979 23.8921 5.68679C23.2111 4.43571 22.7003 3.24149 22.1328 2.16101C25.4812 2.16101 28.8296 2.16101 32.1212 2.16101C33.767 2.16101 34.2778 3.12776 34.9021 4.20824C44.777 20.6998 54.6708 37.1535 64.5835 53.5692L70.0317 62.5543Z" fill="#8330DF"/>
<path d="M24.5173 115.839V48.9629L36.3786 67.786L36.8326 69.2646C36.8326 81.7754 36.8326 94.3431 36.8326 106.854C36.8326 109.811 38.1379 113.735 36.2651 115.441C34.3922 117.147 30.5898 115.839 27.6955 115.953L24.5173 115.839Z" fill="#8432DE"/>
<path d="M103.459 67.1037L114.81 48.4512H115.434V115.839C112.313 115.839 109.134 115.839 106.013 115.839C103.97 115.839 103.459 115.384 103.459 113.337C103.459 99.1201 103.459 84.9032 103.459 70.6295C103.459 69.7196 103.459 68.8097 103.459 67.9567V67.1037Z" fill="#E63273"/>
<path d="M367.13 67.1038L378.481 48.5082H379.048V115.839C375.756 115.839 372.522 115.839 369.287 115.839C367.414 115.839 367.13 115.157 367.13 113.508C367.13 99.4046 367.13 85.074 367.13 71.2552C367.13 70.1747 367.13 69.0942 367.13 68.0137V67.1038Z" fill="#E63373"/>
<path d="M288.529 115.839V49.5314L300.333 68.2408V69.2075C300.333 83.7656 300.333 98.2668 300.333 112.768C300.333 115.156 299.879 116.18 297.325 115.953C294.772 115.725 291.48 115.896 288.529 115.839Z" fill="#8431E0"/>
<path d="M103.459 67.1036V68.0703C98.6916 75.9749 93.8677 83.8795 89.1005 91.8409C87.0574 95.253 85.0143 98.665 83.0847 102.077C82.8276 102.704 82.3709 103.227 81.7859 103.567C81.2008 103.906 80.5201 104.042 79.8498 103.954C76.7285 103.954 73.6071 103.954 70.429 103.954C72.5216 99.477 74.9105 95.1454 77.5797 90.9879C85.4116 77.6241 93.4136 64.3171 101.302 51.1807C101.817 50.2512 102.559 49.4683 103.459 48.906V67.1036Z" fill="#8330DF"/>
<path d="M367.131 67.1038V68.1274C362.817 74.326 359.299 81.0932 355.326 87.5193C352.375 92.2961 349.651 97.073 346.756 101.964C346.498 102.62 346.028 103.172 345.422 103.533C344.816 103.893 344.107 104.041 343.408 103.954C340.173 103.954 336.938 103.954 333.703 103.954C333.673 103.892 333.658 103.824 333.658 103.755C333.658 103.686 333.673 103.618 333.703 103.556C339.379 95.3101 343.919 86.4956 349.027 78.1361C354.777 68.5824 360.453 58.9907 366.052 49.3612C366.052 49.0768 366.336 48.6788 367.187 48.7925L367.131 67.1038Z" fill="#8330DF"/>
<path d="M203.57 43.1624L197.555 52.6024L167.362 2.10413C170.824 2.10413 174.229 2.10413 177.634 2.10413C179.337 2.10413 179.791 3.12774 180.415 4.20822L201.981 39.8073C202.492 40.6603 203.059 41.4564 203.627 42.2526L203.57 43.1624Z" fill="#8330DF"/>
<path d="M36.8317 69.2646L36.3777 67.786V49.759H36.9452C39.5558 54.0241 42.1664 58.2323 44.7203 62.4973L68.613 102.305C68.9724 102.921 69.2763 103.568 69.521 104.238C66.1726 104.238 62.881 104.238 59.5326 104.238C58.1138 104.238 57.5463 103.442 56.922 102.418L38.3073 71.4824L36.8317 69.2646Z" fill="#E53374"/>
<path d="M203.57 43.1624V42.4231C211.175 29.8554 218.779 17.3446 226.271 4.71997C226.672 3.79078 227.367 3.01988 228.25 2.52647C229.132 2.03307 230.152 1.84464 231.151 1.99034C234.046 1.99034 236.827 1.99034 239.778 1.99034L209.642 52.5455C207.259 49.4178 206.067 45.892 203.57 43.1624Z" fill="#E63373"/>
<path d="M333.589 103.442C333.559 103.504 333.544 103.572 333.544 103.641C333.544 103.71 333.559 103.778 333.589 103.84C330.695 103.84 327.914 103.84 324.963 103.84C323.919 103.994 322.853 103.791 321.937 103.265C321.021 102.739 320.308 101.92 319.912 100.94C313.783 90.6467 307.54 80.4674 301.297 70.2313C301.051 69.8578 300.786 69.4971 300.503 69.1508V68.184V50.3276H301.127C304.078 55.1614 306.802 59.9382 309.924 64.772C317.699 77.5103 325.417 90.3055 333.192 103.101C333.135 103.158 333.362 103.271 333.589 103.442Z" fill="#E53374"/>
<path d="M479.103 23.0313C473.045 23.9898 467.363 26.5889 462.672 30.5478C457.981 34.5067 454.459 39.6749 452.486 45.4939C449.334 53.7172 449.182 62.7921 452.059 71.1164C454.935 79.4406 460.654 86.4787 468.206 90.9879C471.743 92.8922 475.584 94.1624 479.557 94.7412V95.0255C472.116 95.8689 464.585 94.7516 457.707 91.784C452.817 89.5161 448.556 86.0796 445.301 81.7763C442.045 77.473 439.894 72.4346 439.036 67.1036C437.7 61.3539 437.739 55.3694 439.15 49.6376C440.56 43.9059 443.302 38.5891 447.151 34.1204C452.235 28.3096 459.177 24.4499 466.788 23.2019C470.849 22.4054 475.021 22.3476 479.103 23.0313V23.0313Z" fill="#8431E0"/>
<path d="M479.67 95.2532V94.9689C487.724 93.8337 495.118 89.8847 500.548 83.8189C505.979 77.753 509.097 69.9601 509.352 61.8152C510.007 55.5445 509.004 49.2116 506.444 43.4521C503.883 37.6927 499.856 32.7095 494.767 29.0026C490.543 26.1054 485.74 24.1648 480.692 23.3159C485.719 22.4363 490.879 22.7003 495.791 24.0882C500.703 25.4761 505.24 27.9525 509.068 31.3342C516.048 37.9093 520.33 46.8571 521.075 56.4277C521.82 65.9983 518.976 75.5033 513.098 83.0836C510.076 86.8362 506.268 89.8768 501.942 91.9898C497.617 94.1027 492.881 95.2363 488.07 95.3101C485.289 95.4239 482.395 95.2532 479.67 95.2532Z" fill="#E53374"/>
</g>
<defs>
<clipPath id="clip0">
<rect width="548" height="118" fill="white"/>
</clipPath>
</defs>
</svg>
